<?xml version="1.0" standalone="no"?>
<!DOCTYPE svg PUBLIC "-//W3C//DTD SVG 20010904//EN"
 "http://www.w3.org/TR/2001/REC-SVG-20010904/DTD/svg10.dtd">
<svg version="1.0" xmlns="http://www.w3.org/2000/svg"
 width="600.000000pt" height="600.000000pt" viewBox="0 0 600.000000 600.000000"
 preserveAspectRatio="xMidYMid meet">
<metadata>
Created by potrace 1.14, written by Peter Selinger 2001-2017
</metadata>
<g transform="translate(0.000000,600.000000) scale(0.100000,-0.100000)"
fill="#000000" stroke="none">
<path d="M0 5585 c0 -383 1 -415 17 -425 17 -11 17 -11 0 -6 -16 5 -17 -30
-17 -698 1 -736 1 -746 43 -730 9 3 17 11 17 17 0 7 -4 7 -12 -1 -19 -19 -33
-14 -16 6 9 9 13 23 11 30 -3 6 1 12 9 12 8 1 6 6 -6 15 -11 8 -16 16 -10 16
5 1 14 2 19 4 6 1 15 3 20 4 6 1 3 5 -6 9 -14 6 -15 9 -3 20 12 11 14 10 14
-3 0 -9 4 -13 10 -10 6 4 7 -1 3 -11 -5 -14 -3 -15 14 -6 28 15 48 0 23 -18
-21 -15 -28 -36 -8 -24 18 12 58 13 58 2 0 -6 -7 -7 -15 -4 -12 4 -14 2 -7
-11 5 -9 7 -24 5 -33 -3 -10 0 -21 6 -24 16 -10 14 -23 -5 -30 -12 -4 -15 -2
-10 9 4 11 -2 15 -22 16 -15 0 -21 3 -15 6 7 2 13 9 13 15 0 6 -7 8 -15 4 -8
-3 -15 0 -15 6 0 6 -2 9 -5 6 -9 -9 14 -59 25 -53 5 3 10 2 10 -3 0 -17 33
-23 48 -9 12 12 18 10 45 -14 17 -16 28 -32 24 -35 -4 -4 -7 -2 -7 4 0 7 -6
12 -14 12 -21 0 -8 -37 15 -43 10 -3 19 -1 19 4 0 4 7 6 15 2 10 -3 15 -1 13
8 -2 7 8 14 24 15 l28 3 -21 -22 c-17 -19 -18 -23 -5 -25 9 -2 16 -8 16 -13 0
-5 7 -9 15 -9 8 0 15 -4 15 -9 0 -5 -8 -8 -17 -7 -13 1 -19 -7 -21 -29 -2 -25
-1 -27 8 -12 6 9 9 20 7 25 -3 4 8 7 24 8 22 1 29 -3 29 -17 0 -11 5 -19 11
-19 5 0 7 5 4 10 -3 6 -2 10 4 10 5 0 14 -8 20 -17 7 -14 12 -15 24 -5 11 10
17 9 27 -3 9 -10 9 -15 1 -15 -6 0 -11 -4 -11 -10 0 -5 8 -6 17 -3 13 5 15 2
10 -11 -4 -10 -3 -15 3 -11 6 3 10 1 10 -4 0 -6 -5 -11 -11 -11 -7 0 -9 -11
-6 -29 4 -17 2 -31 -4 -33 -7 -2 -7 -12 -1 -28 5 -14 6 -36 2 -50 -4 -14 -2
-31 3 -37 6 -9 5 -13 -4 -14 -8 0 -5 -4 6 -8 19 -8 18 -9 -8 -22 -23 -10 -25
-14 -12 -21 8 -5 13 -13 10 -19 -3 -5 1 -6 11 -2 16 6 15 7 -2 20 -10 7 -13
13 -7 13 14 0 26 -18 30 -43 2 -10 -3 -17 -9 -16 -27 3 -39 -1 -32 -12 5 -8 8
-8 14 0 5 9 10 8 19 -3 14 -17 1 -50 -24 -60 -9 -3 -14 -2 -11 3 3 5 -1 11 -9
15 -8 3 -15 12 -15 20 0 8 -4 18 -10 21 -5 3 -7 0 -4 -9 4 -11 -4 -18 -28 -25
-21 -6 -26 -10 -13 -10 18 -2 19 -2 2 -12 -23 -13 -22 -24 5 -51 16 -16 17
-20 5 -15 -20 8 -22 -3 -4 -22 10 -12 9 -13 -7 -7 -15 5 -17 4 -8 -7 9 -10 8
-17 0 -25 -9 -9 -9 -12 2 -13 8 -1 19 -1 23 0 4 1 3 -7 -2 -18 -8 -14 -7 -22
4 -31 7 -6 11 -18 8 -26 -3 -8 4 -17 20 -23 13 -5 27 -16 30 -25 4 -10 1 -13
-9 -9 -8 3 -21 0 -29 -7 -12 -10 -15 -9 -15 9 0 11 -5 21 -11 21 -5 0 -7 5 -3
12 4 6 3 9 -2 6 -5 -3 -18 -2 -29 3 -15 6 -16 8 -4 8 20 1 33 31 20 44 -10 10
-31 1 -31 -14 0 -6 4 -7 10 -4 5 3 10 2 10 -3 0 -4 -16 -15 -36 -22 -20 -8
-31 -16 -25 -18 5 -2 0 -14 -11 -28 -18 -20 -24 -22 -37 -10 -30 25 -41 28
-34 9 6 -16 5 -16 -10 -4 -15 12 -17 12 -11 -3 4 -11 1 -16 -12 -17 -11 -1
-31 -2 -47 -3 -15 -2 -27 1 -27 6 0 4 -7 8 -15 8 -8 0 -15 5 -15 10 0 6 -6 5
-14 -2 -8 -7 -11 -17 -8 -22 3 -5 0 -6 -7 -2 -6 4 -9 11 -6 16 3 4 -2 10 -10
14 -8 3 -15 11 -15 18 0 9 3 9 12 0 7 -7 16 -12 21 -12 5 0 2 7 -7 15 -8 8
-20 15 -26 15 -6 0 -9 4 -6 9 3 5 -3 11 -14 14 -19 5 -19 -11 -20 -1434 l0
-1439 848 0 c665 0 851 3 861 12 11 11 13 10 7 0 -6 -10 214 -12 1088 -12 603
0 1096 4 1097 8 0 4 2 15 4 25 2 13 -1 17 -11 13 -8 -3 -21 -9 -29 -12 -9 -4
-15 -1 -15 7 0 10 -3 10 -12 1 -15 -15 -31 -16 -22 0 5 7 3 8 -6 3 -13 -8 -92
-14 -84 -6 2 2 -2 11 -10 20 -21 24 -29 58 -15 67 9 5 10 2 6 -12 -6 -17 -6
-17 5 -3 7 9 21 15 32 13 14 -2 17 2 13 22 -2 13 0 27 5 30 4 3 6 10 2 15 -3
5 -10 6 -16 3 -6 -4 -6 2 1 15 7 11 16 22 21 22 6 1 14 2 20 3 5 0 16 10 25
21 10 13 14 15 13 5 -2 -8 -6 -17 -9 -20 -4 -3 -16 -22 -28 -43 -16 -28 -17
-37 -7 -37 20 0 37 -54 23 -70 -9 -10 -8 -12 6 -7 11 4 17 1 17 -9 0 -10 6
-14 15 -10 8 3 15 1 15 -5 0 -5 17 3 38 19 38 30 82 47 82 32 0 -5 -4 -12 -10
-15 -15 -9 -12 -25 4 -25 8 0 14 -6 13 -12 0 -7 1 -23 1 -35 l2 -22 1005 -1
1005 0 0 3000 0 3000 -3000 0 -3000 0 0 -415z m1195 375 c3 -5 -1 -10 -10 -10
-9 0 -13 5 -10 10 3 6 8 10 10 10 2 0 7 -4 10 -10z m1805 -95 c0 -8 -4 -15
-10 -15 -5 0 -10 7 -10 15 0 8 5 15 10 15 6 0 10 -7 10 -15z m960 -94 c0 -6
-4 -13 -10 -16 -5 -3 -10 1 -10 9 0 9 5 16 10 16 6 0 10 -4 10 -9z m-3690 -41
c0 -5 -4 -10 -10 -10 -5 0 -10 5 -10 10 0 6 5 10 10 10 6 0 10 -4 10 -10z
m3340 -44 c0 -3 -4 -8 -10 -11 -5 -3 -10 -1 -10 4 0 6 5 11 10 11 6 0 10 -2
10 -4z m-3120 -16 c0 -5 -5 -10 -11 -10 -5 0 -7 5 -4 10 3 6 8 10 11 10 2 0 4
-4 4 -10z m2568 -13 c4 -22 -27 -35 -38 -16 -10 15 7 42 24 36 6 -2 12 -11 14
-20z m-1998 -77 c0 -5 -4 -10 -10 -10 -5 0 -10 5 -10 10 0 6 5 10 10 10 6 0
10 -4 10 -10z m3600 -20 c0 -5 -4 -10 -10 -10 -5 0 -10 5 -10 10 0 6 5 10 10
10 6 0 10 -4 10 -10z m-2660 -4 c0 -3 -4 -8 -10 -11 -5 -3 -10 -1 -10 4 0 6 5
11 10 11 6 0 10 -2 10 -4z m-1425 -66 c3 -5 1 -10 -4 -10 -6 0 -11 5 -11 10 0
6 2 10 4 10 3 0 8 -4 11 -10z m295 -36 c0 -8 -7 -14 -15 -14 -15 0 -21 21 -9
33 10 9 24 -2 24 -19z m720 -4 c0 -5 -5 -10 -11 -10 -5 0 -7 5 -4 10 3 6 8 10
11 10 2 0 4 -4 4 -10z m-630 -54 c0 -3 -4 -8 -10 -11 -5 -3 -10 -1 -10 4 0 6
5 11 10 11 6 0 10 -2 10 -4z m334 -41 c11 -8 18 -15 15 -16 -49 -9 -59 -8 -59
4 0 29 16 33 44 12z m-194 -20 c0 -9 7 -18 15 -21 8 -4 12 -11 9 -16 -4 -6 2
-8 15 -3 18 5 24 2 28 -15 3 -11 18 -27 34 -35 32 -17 63 -20 54 -5 -3 6 -1
10 4 10 6 0 11 -5 11 -11 0 -18 22 2 36 35 11 26 13 27 14 9 0 -12 -4 -25 -10
-28 -16 -10 -12 -25 8 -25 13 0 14 -2 4 -9 -11 -6 -11 -16 -3 -47 15 -53 14
-74 -3 -74 -10 0 -14 -11 -13 -37 2 -31 8 -40 35 -56 27 -16 38 -18 58 -8 23
10 24 9 14 -9 -8 -14 -8 -20 0 -20 8 0 9 -15 4 -47 -4 -26 -7 -57 -8 -68 -1
-11 -6 -20 -13 -20 -6 0 -15 -4 -20 -8 -4 -5 -1 -7 7 -5 8 2 14 -3 12 -9 -1
-7 4 -13 12 -13 8 0 17 6 20 13 3 6 4 0 1 -15 -4 -19 -1 -28 7 -28 9 0 9 -3
-2 -10 -9 -6 -17 -5 -21 1 -4 6 -15 -2 -27 -19 -16 -22 -18 -32 -10 -40 16
-16 31 -15 23 1 -4 6 0 4 8 -6 14 -17 15 -17 20 2 2 11 0 25 -7 31 -7 8 -2 7
12 -1 12 -8 22 -21 23 -29 5 -76 10 -105 19 -108 5 -2 10 -10 10 -18 0 -8 3
-14 8 -15 7 -1 19 -3 80 -14 22 -4 32 -3 28 4 -4 6 2 8 15 6 13 -3 29 1 36 7
7 6 16 8 20 5 3 -4 -1 -9 -10 -13 -9 -3 -14 -11 -11 -18 8 -20 -107 -16 -124
4 -11 13 -11 11 -2 -8 12 -24 7 -53 -7 -51 -31 5 -65 -4 -70 -18 -4 -9 -1 -19
5 -21 7 -2 12 -11 12 -19 0 -12 -3 -13 -13 -5 -11 10 -65 8 -75 -2 -1 -2 2
-15 7 -30 8 -20 7 -26 -3 -26 -19 0 -51 32 -53 54 -1 13 2 15 10 7 6 -6 15
-11 21 -11 5 0 7 3 3 6 -3 4 1 13 9 22 21 20 5 34 -44 35 -22 1 -37 6 -34 11
3 5 -2 7 -11 3 -9 -3 -16 -3 -16 1 3 20 -3 32 -16 32 -8 0 -15 6 -15 13 0 6
-8 0 -18 -15 -9 -16 -20 -28 -24 -28 -5 0 -3 -8 3 -18 9 -14 8 -25 -5 -50 -16
-31 -16 -32 10 -38 22 -6 24 -8 10 -16 -9 -5 -16 -18 -16 -29 0 -11 -4 -17
-10 -14 -5 3 -10 -4 -10 -16 0 -17 -3 -19 -14 -10 -11 9 -15 7 -19 -9 -3 -11
-1 -20 4 -20 4 0 6 -7 2 -16 -5 -13 -9 -12 -25 6 -23 24 -51 12 -30 -12 7 -9
7 -19 2 -28 -14 -22 -12 -40 4 -34 19 7 28 -22 10 -37 -11 -9 -18 -9 -26 -1
-9 9 -8 12 3 12 10 1 10 3 -3 11 -17 9 -17 12 -3 39 14 28 13 34 -8 31 -4 -1
-5 11 -1 26 4 23 3 25 -6 13 -9 -12 -13 -12 -17 -2 -4 10 -8 10 -19 1 -8 -6
-14 -8 -14 -5 0 4 -5 4 -12 0 -8 -5 -6 -10 8 -15 17 -7 17 -8 2 -8 -10 -1 -18
-5 -18 -11 0 -5 -11 -9 -25 -8 -31 3 -31 3 0 36 21 22 25 34 21 70 -4 46 8 66
18 29 6 -21 7 -21 20 8 9 21 10 32 2 37 -16 11 6 10 23 -1 8 -5 11 -16 8 -24
-3 -9 1 -21 9 -27 13 -11 18 -7 15 13 0 4 4 7 9 7 14 0 12 37 -2 43 -9 4 -8 6
3 6 8 1 21 -5 28 -11 9 -8 11 -8 8 -2 -4 7 -1 14 7 17 17 7 27 55 12 61 -6 3
-1 8 12 11 12 4 22 15 23 24 0 9 2 24 4 34 2 9 -1 15 -6 11 -5 -3 -9 2 -9 11
0 10 -6 15 -13 12 -15 -6 -19 65 -3 75 7 4 6 15 -2 34 -7 14 -10 29 -7 32 3 3
5 0 5 -6 0 -7 11 -12 25 -12 14 0 25 5 25 10 0 6 8 5 19 -2 11 -7 17 -17 13
-23 -4 -6 1 -3 10 8 9 10 14 25 11 32 -3 9 1 15 8 15 7 0 5 6 -7 14 -19 14
-19 14 1 13 20 -2 22 4 10 36 -5 12 -2 17 10 17 9 0 14 4 11 9 -4 5 0 12 6 14
10 4 9 8 -2 16 -11 8 -17 6 -22 -7 -7 -17 -9 -14 -13 26 -1 12 1 22 6 22 5 0
6 7 2 16 -5 13 -7 13 -14 2 -6 -9 -11 -10 -16 -2 -5 6 -16 13 -26 17 -15 6
-17 3 -12 -16 5 -19 4 -20 -5 -4 -14 23 -27 22 -40 -4 -9 -15 -8 -24 2 -37 11
-15 11 -15 -3 -4 -14 10 -18 10 -23 -4 -5 -12 -10 -14 -17 -7 -7 7 -6 19 2 37
8 16 15 22 19 15 4 -6 10 4 14 22 4 20 1 38 -6 47 -11 13 -11 14 1 7 11 -6 13
-4 8 9 -4 10 -7 22 -7 27 0 5 -10 9 -22 9 -16 0 -19 3 -10 8 21 14 5 36 -39
54 -23 10 -38 22 -34 28 10 16 -3 12 -36 -12 -24 -18 -32 -20 -38 -9 -5 7 -14
10 -20 6 -9 -5 -7 -11 6 -21 17 -13 17 -13 -1 -14 -11 0 -28 -8 -39 -17 -11
-10 -18 -13 -15 -8 5 9 -15 36 -27 35 -21 -1 -26 2 -24 13 4 33 -2 58 -13 51
-7 -5 -8 -3 -3 5 5 9 11 9 17 3 6 -6 17 -8 26 -5 10 4 13 2 8 -5 -4 -7 -2 -12
4 -12 15 0 41 26 33 34 -4 3 6 6 22 6 22 0 25 3 16 14 -9 11 -7 20 14 40 21
21 24 30 15 46 -8 16 -6 21 12 31 13 7 36 13 51 15 15 1 31 5 34 8 11 11 23 6
23 -9z m70 -5 c0 -5 -4 -10 -10 -10 -5 0 -10 5 -10 10 0 6 5 10 10 10 6 0 10
-4 10 -10z m738 -43 c2 -12 -3 -17 -17 -17 -12 0 -21 6 -21 13 0 31 32 34 38
4z m-1818 -17 c0 -5 -5 -10 -11 -10 -5 0 -7 5 -4 10 3 6 8 10 11 10 2 0 4 -4
4 -10z m580 -99 c0 -3 -11 -7 -25 -7 -20 -2 -23 1 -15 11 11 13 40 10 40 -4z
m-205 -11 c3 -5 1 -10 -4 -10 -6 0 -11 5 -11 10 0 6 2 10 4 10 3 0 8 -4 11
-10z m245 -10 c0 -5 -7 -7 -15 -4 -8 4 -12 10 -9 15 6 11 24 2 24 -11z m648
-27 c0 -21 -2 -23 -10 -9 -5 9 -6 21 -3 26 10 16 13 12 13 -17z m-319 -15 c12
-16 11 -18 -3 -18 -10 0 -14 5 -11 10 3 6 2 10 -4 10 -5 0 -13 -4 -16 -10 -7
-12 -25 -13 -25 -2 0 5 43 31 45 28 1 -1 7 -9 14 -18z m-324 2 c3 -5 2 -10 -4
-10 -5 0 -13 5 -16 10 -3 6 -2 10 4 10 5 0 13 -4 16 -10z m1168 -76 c9 -10 -4
-34 -18 -34 -17 0 -28 17 -20 30 7 11 28 13 38 4z m1398 -24 c179 -18 406 -69
524 -118 160 -67 372 -189 419 -241 19 -21 18 -22 -85 -177 -57 -86 -107 -161
-110 -166 -3 -5 -48 18 -100 52 -162 107 -339 180 -532 222 -147 31 -418 31
-565 0 -130 -28 -209 -58 -223 -84 -7 -13 -17 -18 -31 -15 -47 13 -248 -121
-347 -229 -116 -127 -200 -270 -255 -434 -48 -143 -66 -257 -67 -424 -1 -133
17 -326 30 -326 3 0 6 -14 7 -31 1 -16 9 -56 19 -88 14 -48 21 -58 36 -54 13
4 18 12 15 27 -7 33 -17 56 -27 56 -5 0 -8 3 -8 8 4 22 -2 42 -11 37 -10 -6
-4 60 7 78 7 12 -12 8 -25 -5 -9 -9 -11 -4 -6 22 7 46 7 61 0 88 -3 14 1 34
10 47 8 12 12 29 9 38 -4 9 3 24 17 37 14 13 17 19 7 15 -12 -4 -18 1 -21 20
-3 14 -1 28 4 31 6 4 5 10 -3 15 -10 6 -11 9 -1 9 6 0 12 4 12 9 0 5 -10 7
-22 3 -15 -4 -19 -2 -13 8 5 8 20 10 41 7 20 -4 32 -2 29 3 -3 6 1 7 9 4 9 -3
16 -10 16 -15 0 -15 25 -10 42 9 9 9 28 28 43 42 l28 25 -8 -25 -8 -25 23 20
22 20 -13 -28 c-7 -15 -16 -27 -21 -27 -5 0 -2 -7 6 -16 9 -8 16 -20 16 -26 0
-5 7 -7 16 -4 12 5 14 1 9 -15 -4 -12 0 -31 11 -47 10 -15 17 -31 16 -37 -1
-5 4 -2 11 8 8 9 17 17 21 17 11 0 6 -18 -9 -33 -12 -13 -12 -15 5 -20 11 -3
19 -2 18 2 0 3 0 15 1 26 l2 20 14 -20 c9 -11 25 -32 38 -48 24 -29 29 -58 12
-69 -6 -4 -1 -15 13 -28 21 -19 32 -47 14 -36 -4 2 -14 0 -22 -5 -13 -9 -13
-10 0 -6 8 2 20 -5 27 -17 10 -17 13 2 14 109 0 72 2 171 4 222 2 51 0 148 -2
217 -5 105 -8 122 -19 111 -8 -7 -14 -18 -14 -24 0 -6 -5 -11 -11 -11 -5 0 -7
5 -3 11 3 6 0 15 -7 20 -12 8 -12 11 1 19 13 8 12 10 -4 10 -14 0 -17 -5 -13
-21 4 -15 2 -19 -9 -15 -7 3 -13 2 -13 -2 4 -28 -4 -38 -32 -40 -44 -3 -52
-10 -45 -41 4 -16 3 -21 -2 -13 -6 9 -12 6 -20 -13 -6 -14 -16 -25 -22 -25 -7
0 -7 6 0 20 6 11 9 39 7 62 -4 35 1 51 27 89 17 26 42 55 56 64 14 9 18 14 9
12 -12 -4 -15 -1 -12 13 6 21 28 17 37 -6 3 -9 11 -12 18 -8 8 5 9 2 5 -10 -4
-10 -3 -15 3 -11 12 7 33 -12 43 -39 4 -10 10 -17 12 -14 3 3 7 76 9 164 l3
159 111 3 111 3 3 -568 c3 -554 4 -569 24 -620 64 -156 197 -230 398 -221 174
8 282 71 342 200 l29 63 5 570 5 570 113 3 112 3 0 -371 0 -370 383 -2 382 -3
3 -807 2 -808 -200 0 -200 0 0 171 0 171 -55 -51 c-123 -112 -299 -211 -485
-271 -178 -58 -290 -73 -499 -67 -266 8 -449 54 -672 169 -235 120 -435 301
-580 523 -43 66 -82 125 -86 130 -5 6 -13 24 -20 40 -6 17 -27 69 -47 116
-137 329 -165 770 -70 1133 58 221 170 444 307 609 24 29 37 53 33 63 -4 10
-1 14 6 11 7 -2 47 28 89 68 273 259 606 410 989 448 79 8 264 6 361 -3z
m-2841 -40 c0 -5 -4 -10 -10 -10 -5 0 -10 5 -10 10 0 6 5 10 10 10 6 0 10 -4
10 -10z m-75 -31 c10 -15 -1 -23 -20 -15 -9 3 -13 10 -10 16 8 13 22 13 30 -1z
m555 7 c0 -3 -4 -8 -10 -11 -5 -3 -10 -1 -10 4 0 6 5 11 10 11 6 0 10 -2 10
-4z m260 -10 c0 -3 -4 -8 -10 -11 -5 -3 -10 -1 -10 4 0 6 5 11 10 11 6 0 10
-2 10 -4z m3530 -41 c0 -8 -4 -15 -9 -15 -13 0 -22 16 -14 24 11 11 23 6 23
-9z m-4160 -25 c0 -5 -2 -10 -4 -10 -3 0 -8 5 -11 10 -3 6 -1 10 4 10 6 0 11
-4 11 -10z m673 -3 c7 3 9 2 4 -2 -4 -5 -16 -9 -27 -10 -16 -1 -17 1 -8 13 8
9 14 10 16 3 2 -6 9 -8 15 -4z m-508 -315 c-8 -8 -12 0 -19 38 l-7 35 16 -34
c8 -19 13 -36 10 -39z m3976 9 c34 -34 39 -45 39 -84 0 -25 -5 -49 -10 -52 -7
-4 -9 2 -5 18 4 16 -1 42 -13 70 -16 37 -28 47 -65 62 -27 10 -54 14 -67 10
-15 -5 -20 -4 -16 4 4 6 28 11 53 11 39 0 50 -5 84 -39z m539 19 c0 -5 -4 -10
-10 -10 -5 0 -10 5 -10 10 0 6 5 10 10 10 6 0 10 -4 10 -10z m-4350 -60 c0 -5
-5 -10 -11 -10 -5 0 -7 5 -4 10 3 6 8 10 11 10 2 0 4 -4 4 -10z m355 -10 c3
-5 1 -10 -4 -10 -6 0 -11 5 -11 10 0 6 2 10 4 10 3 0 8 -4 11 -10z m405 -10
c0 -6 -11 -8 -27 -4 -40 10 -41 14 -5 14 18 0 32 -5 32 -10z m-940 -30 c0 -5
-5 -10 -11 -10 -5 0 -7 5 -4 10 3 6 8 10 11 10 2 0 4 -4 4 -10z m303 -14 c3
-8 -2 -16 -14 -19 -14 -4 -19 0 -19 14 0 22 25 26 33 5z m467 3 c0 -5 5 -7 12
-3 7 4 8 3 4 -4 -4 -6 -13 -9 -21 -5 -17 6 -20 23 -5 23 6 0 10 -5 10 -11z
m55 1 c-3 -5 -11 -10 -16 -10 -6 0 -7 5 -4 10 3 6 11 10 16 10 6 0 7 -4 4 -10z
m-860 -10 c3 -5 1 -10 -4 -10 -6 0 -11 5 -11 10 0 6 2 10 4 10 3 0 8 -4 11
-10z m660 0 c-3 -5 -12 -10 -18 -10 -7 0 -6 4 3 10 19 12 23 12 15 0z m1475
-10 c0 -5 -4 -10 -10 -10 -5 0 -10 5 -10 10 0 6 5 10 10 10 6 0 10 -4 10 -10z
m-1941 -66 c-14 -17 -39 -18 -39 -1 0 6 11 13 25 13 21 2 24 -1 14 -12z m571
12 c0 -3 -4 -8 -10 -11 -5 -3 -10 -1 -10 4 0 6 5 11 10 11 6 0 10 -2 10 -4z
m1045 -26 c-3 -5 -10 -10 -16 -10 -5 0 -9 5 -9 10 0 6 7 10 16 10 8 0 12 -4 9
-10z m-1620 -19 c-3 -6 -11 -8 -17 -5 -6 4 -5 9 3 15 16 10 23 4 14 -10z
m-485 -31 c0 -5 -5 -10 -11 -10 -5 0 -7 5 -4 10 3 6 8 10 11 10 2 0 4 -4 4
-10z m827 -22 c-3 -8 -6 -5 -6 6 -1 11 2 17 5 13 3 -3 4 -12 1 -19z m146 2 c3
-11 1 -18 -4 -14 -5 3 -9 12 -9 20 0 20 7 17 13 -6z m-28 -29 c-3 -6 -14 -10
-23 -10 -15 1 -15 2 1 6 9 2 17 9 17 15 0 6 3 9 6 5 3 -3 3 -10 -1 -16z m-115
-21 c0 -5 -2 -10 -4 -10 -3 0 -8 5 -11 10 -3 6 -1 10 4 10 6 0 11 -4 11 -10z
m-84 -37 c-10 -10 -19 5 -10 18 6 11 8 11 12 0 2 -7 1 -15 -2 -18z m-967 -13
c20 0 40 -35 35 -64 -3 -23 -30 -40 -61 -41 -18 -1 -22 4 -19 27 4 33 -9 46
-22 22 -8 -14 -9 -12 -9 9 0 16 4 24 11 21 6 -3 2 2 -8 10 -13 10 -16 20 -10
25 16 15 49 18 57 4 4 -7 16 -13 26 -13z m181 21 c0 -12 -20 -25 -27 -18 -7 7
6 27 18 27 5 0 9 -4 9 -9z m-282 -19 c6 -18 -15 -14 -22 4 -4 10 -1 14 6 12 6
-2 14 -10 16 -16z m1312 -3 c0 -6 -4 -7 -10 -4 -5 3 -10 11 -10 16 0 6 5 7 10
4 6 -3 10 -11 10 -16z m3548 -5 c4 -26 -22 -38 -48 -22 -14 9 -16 16 -9 31 14
25 53 19 57 -9z m-3468 -14 c0 -5 -4 -10 -10 -10 -5 0 -10 5 -10 10 0 6 5 10
10 10 6 0 10 -4 10 -10z m-290 -10 c0 -5 -4 -10 -10 -10 -5 0 -10 5 -10 10 0
6 5 10 10 10 6 0 10 -4 10 -10z m410 -16 c0 -8 -9 -14 -20 -14 -18 0 -19 3
-10 20 12 22 30 18 30 -6z m-420 -19 c0 6 5 2 11 -8 8 -14 8 -22 -1 -30 -8 -9
-9 -7 -4 7 5 14 4 17 -5 11 -15 -8 -33 13 -24 28 3 5 9 3 14 -4 5 -8 9 -9 9
-4z m1105 5 c3 -5 -1 -10 -9 -10 -9 0 -16 5 -16 10 0 6 4 10 9 10 6 0 13 -4
16 -10z m-1175 -8 c0 -5 -7 -9 -15 -9 -8 0 -12 4 -9 9 3 4 9 8 15 8 5 0 9 -4
9 -8z m40 -27 c0 -5 -5 -3 -10 5 -5 8 -10 20 -10 25 0 6 5 3 10 -5 5 -8 10
-19 10 -25z m116 23 c4 -7 3 -8 -4 -4 -7 4 -12 0 -12 -10 0 -10 -3 -15 -6 -11
-7 6 2 37 10 37 3 0 8 -5 12 -12z m-216 -8 c0 -5 -5 -10 -11 -10 -5 0 -7 5 -4
10 3 6 8 10 11 10 2 0 4 -4 4 -10z m80 -52 c0 -10 -23 -15 -42 -10 -28 7 -21
17 12 17 17 0 30 -3 30 -7z m240 -23 c-7 -9 -15 -13 -19 -10 -3 3 1 10 9 15
21 14 24 12 10 -5z m-1240 -15 c0 -5 -4 -10 -10 -10 -5 0 -10 5 -10 10 0 6 5
10 10 10 6 0 10 -4 10 -10z m40 -5 c0 -8 -9 -15 -20 -15 -11 0 -20 -7 -20 -15
0 -8 -4 -15 -10 -15 -15 0 -12 18 8 39 21 23 42 26 42 6z m912 1 c13 4 37 8
54 9 25 1 29 -1 20 -11 -6 -6 -14 -10 -19 -7 -4 2 -10 -3 -13 -12 -5 -12 -9
-13 -14 -5 -6 10 -15 9 -39 -3 -31 -15 -32 -15 -26 4 4 11 2 19 -4 19 -6 0
-11 5 -11 11 0 8 4 8 15 -1 8 -7 23 -9 37 -4z m-990 -28 c-8 -8 -9 -4 -5 13 4
13 8 18 11 10 2 -7 -1 -18 -6 -23z m2138 11 c0 -6 -4 -7 -10 -4 -5 3 -10 11
-10 16 0 6 5 7 10 4 6 -3 10 -11 10 -16z m-995 1 c3 -5 -1 -10 -10 -10 -9 0
-13 5 -10 10 3 6 8 10 10 10 2 0 7 -4 10 -10z m-528 -38 c3 -36 3 -36 -10 -12
-8 14 -12 31 -9 38 8 23 17 12 19 -26z m388 18 c-3 -5 -12 -10 -18 -10 -7 0
-6 4 3 10 19 12 23 12 15 0z m-976 -65 c0 -5 -6 1 -14 15 -8 14 -14 30 -14 35
0 6 6 -1 14 -15 8 -14 14 -29 14 -35z m701 26 c3 -2 -3 -1 -13 2 -11 4 -25 1
-33 -8 -20 -19 -41 -20 -25 -2 6 8 7 18 3 22 -4 5 1 5 11 2 9 -4 17 -2 17 5 0
9 15 2 40 -21z m-680 -7 c0 -8 -4 -12 -10 -9 -5 3 -10 10 -10 16 0 5 5 9 10 9
6 0 10 -7 10 -16z m990 -4 c0 -5 -4 -10 -10 -10 -5 0 -10 5 -10 10 0 6 5 10
10 10 6 0 10 -4 10 -10z m-200 -4 c0 -3 -4 -8 -10 -11 -5 -3 -10 -1 -10 4 0 6
5 11 10 11 6 0 10 -2 10 -4z m-750 -36 c20 -20 19 -40 -1 -40 -6 0 -7 5 -4 10
3 6 1 10 -5 10 -6 0 -9 4 -5 9 3 6 -3 14 -12 20 -10 6 -12 11 -5 11 6 0 21 -9
32 -20z m73 13 c-7 -2 -13 -11 -13 -18 0 -8 -4 -16 -9 -19 -5 -4 -8 2 -6 11 2
10 4 21 4 26 1 4 9 7 19 6 10 0 12 -3 5 -6z m538 -16 c-10 -9 -11 -8 -5 6 3
10 9 15 12 12 3 -3 0 -11 -7 -18z m469 3 c0 -5 -5 -10 -11 -10 -5 0 -7 5 -4
10 3 6 8 10 11 10 2 0 4 -4 4 -10z m-995 -60 c-3 -5 -11 -10 -16 -10 -6 0 -7
5 -4 10 3 6 11 10 16 10 6 0 7 -4 4 -10z m4519 -11 c-3 -5 -10 -7 -15 -3 -5 3
-7 10 -3 15 3 5 10 7 15 3 5 -3 7 -10 3 -15z m-4487 -21 c-3 -7 -5 -2 -5 12 0
14 2 19 5 13 2 -7 2 -19 0 -25z m1083 12 c-8 -5 -19 -10 -25 -10 -5 0 -3 5 5
10 8 5 20 10 25 10 6 0 3 -5 -5 -10z m-115 -20 c3 -5 1 -10 -4 -10 -6 0 -11 5
-11 10 0 6 2 10 4 10 3 0 8 -4 11 -10z m-1195 -26 c0 -8 -4 -12 -10 -9 -5 3
-10 10 -10 16 0 5 5 9 10 9 6 0 10 -7 10 -16z m220 -14 c0 -5 -2 -10 -4 -10
-3 0 -8 5 -11 10 -3 6 -1 10 4 10 6 0 11 -4 11 -10z m54 -16 c3 -8 2 -12 -4
-9 -6 3 -10 10 -10 16 0 14 7 11 14 -7z m331 -4 c-3 -5 -2 -10 2 -10 5 0 13
-13 19 -28 10 -25 8 -29 -12 -39 -18 -8 -24 -7 -28 3 -3 8 -12 14 -20 14 -8 0
-18 5 -22 12 -4 7 -3 8 4 4 7 -4 12 -3 12 2 0 5 -10 13 -22 19 -15 6 -18 12
-10 17 7 4 12 2 12 -5 0 -8 4 -8 13 -1 6 5 21 12 32 15 11 2 21 5 23 6 2 0 0
-3 -3 -9z m-370 -10 c3 -5 2 -10 -4 -10 -5 0 -13 5 -16 10 -3 6 -2 10 4 10 5
0 13 -4 16 -10z m167 -12 c-6 -6 -15 -8 -19 -4 -4 4 -1 11 7 16 19 12 27 3 12
-12z m678 13 c0 -12 -20 -25 -27 -18 -7 7 6 27 18 27 5 0 9 -4 9 -9z m60 -26
c0 -8 -7 -15 -15 -15 -8 0 -15 7 -15 15 0 8 7 15 15 15 8 0 15 -7 15 -15z
m1000 -15 c0 -5 -4 -10 -10 -10 -5 0 -10 5 -10 10 0 6 5 10 10 10 6 0 10 -4
10 -10z m100 -10 c0 -5 -2 -10 -4 -10 -3 0 -8 5 -11 10 -3 6 -1 10 4 10 6 0
11 -4 11 -10z m-1897 -62 c-5 -26 -4 -30 10 -25 10 4 17 2 17 -5 0 -7 5 -6 15
2 13 11 14 10 9 -3 -7 -18 -34 -31 -34 -16 0 6 -4 8 -9 5 -4 -3 -13 6 -20 20
-9 20 -9 30 0 40 17 21 19 17 12 -18z m2463 -5 c-10 -10 -19 5 -10 18 6 11 8
11 12 0 2 -7 1 -15 -2 -18z m2944 17 c0 -5 -2 -10 -4 -10 -3 0 -8 5 -11 10 -3
6 -1 10 4 10 6 0 11 -4 11 -10z m-5240 -10 c0 -5 -4 -10 -10 -10 -5 0 -10 5
-10 10 0 6 5 10 10 10 6 0 10 -4 10 -10z m806 -12 c4 -13 7 -29 5 -37 -1 -7 2
-10 8 -6 6 3 12 1 12 -4 3 -26 4 -30 11 -36 9 -10 -1 -36 -25 -62 -15 -17 -17
-23 -6 -23 12 0 12 -2 0 -9 -7 -5 -11 -13 -7 -19 3 -5 -3 -12 -14 -15 -23 -6
-23 -6 -10 27 7 20 6 27 -8 35 -14 8 -14 11 -2 11 13 1 13 2 -1 13 -9 7 -16
15 -17 20 -2 26 -12 31 -25 14 -9 -10 -18 -14 -21 -9 -10 17 5 42 25 42 10 0
19 5 19 10 0 6 7 10 15 10 8 0 15 2 15 4 0 2 3 12 7 22 4 12 3 15 -5 10 -8 -5
-10 -2 -6 8 9 23 21 20 30 -6z m794 -28 c0 -5 -5 -10 -11 -10 -5 0 -7 5 -4 10
3 6 8 10 11 10 2 0 4 -4 4 -10z m-26 -27 c-5 -5 -12 -12 -16 -18 -4 -6 -8 -2
-8 8 0 9 7 17 17 17 9 0 12 -3 7 -7z m-1554 -54 c0 -6 -5 -7 -10 -4 -6 4 -17
2 -24 -4 -10 -9 -15 -8 -19 3 -4 10 -1 13 7 10 8 -3 17 0 21 5 7 13 25 5 25
-10z m2170 -13 c0 -3 -4 -8 -10 -11 -5 -3 -10 -1 -10 4 0 6 5 11 10 11 6 0 10
-2 10 -4z m-1987 -45 c3 -14 1 -18 -9 -14 -8 3 -14 10 -14 17 0 6 -5 4 -10 -4
-5 -8 -10 -10 -10 -4 0 14 21 34 30 29 4 -3 10 -13 13 -24z m1972 9 c3 -5 1
-10 -4 -10 -6 0 -11 5 -11 10 0 6 2 10 4 10 3 0 8 -4 11 -10z m-485 -44 c0
-12 -5 -7 -19 24 -11 24 -11 24 3 6 9 -11 16 -24 16 -30z m-1716 19 c-4 -8 -8
-15 -10 -15 -2 0 -4 7 -4 15 0 8 4 15 10 15 5 0 7 -7 4 -15z m26 -15 c0 -5 -4
-10 -10 -10 -5 0 -10 5 -10 10 0 6 5 10 10 10 6 0 10 -4 10 -10z m827 -26 c-3
-3 -12 -4 -19 -1 -8 3 -5 6 6 6 11 1 17 -2 13 -5z m10 -27 c12 -8 6 -47 -8
-47 -5 0 -8 4 -6 9 1 5 -2 9 -7 9 -11 0 -26 24 -20 33 5 8 24 7 41 -4z m3863
3 c0 -5 -4 -10 -10 -10 -5 0 -10 5 -10 10 0 6 5 10 10 10 6 0 10 -4 10 -10z
m-3900 -61 c0 -5 -4 -9 -10 -9 -5 0 -10 7 -10 16 0 8 5 12 10 9 6 -3 10 -10
10 -16z m-815 -9 c3 -5 1 -10 -4 -10 -6 0 -11 5 -11 10 0 6 2 10 4 10 3 0 8
-4 11 -10z m445 -64 c0 -3 -4 -8 -10 -11 -5 -3 -10 -1 -10 4 0 6 5 11 10 11 6
0 10 -2 10 -4z m-110 -26 c0 -5 -4 -10 -10 -10 -5 0 -10 5 -10 10 0 6 5 10 10
10 6 0 10 -4 10 -10z m3695 0 c3 -5 1 -10 -4 -10 -6 0 -11 5 -11 10 0 6 2 10
4 10 3 0 8 -4 11 -10z m515 0 c0 -5 -5 -10 -11 -10 -5 0 -7 5 -4 10 3 6 8 10
11 10 2 0 4 -4 4 -10z m-4260 -4 c0 -3 -4 -8 -10 -11 -5 -3 -10 -1 -10 4 0 6
5 11 10 11 6 0 10 -2 10 -4z m1925 -16 c3 -5 1 -10 -4 -10 -6 0 -11 5 -11 10
0 6 2 10 4 10 3 0 8 -4 11 -10z m2456 -16 c17 -21 0 -49 -31 -49 -31 0 -48 28
-31 49 8 9 21 16 31 16 10 0 23 -7 31 -16z m-2465 -38 c10 -8 15 -18 11 -23
-5 -4 -15 1 -23 11 -13 19 -14 18 -15 -15 -1 -19 0 -38 1 -44 1 -5 -2 -7 -6
-3 -4 4 -8 26 -10 48 -3 44 8 50 42 26z m2612 -13 c-4 -22 -22 -20 -26 1 -2
10 3 16 13 16 10 0 15 -7 13 -17z m-4538 -8 c0 -8 -4 -15 -10 -15 -5 0 -10 7
-10 15 0 8 5 15 10 15 6 0 10 -7 10 -15z m-386 -37 c-3 -4 -9 -8 -15 -8 -5 0
-9 4 -9 8 0 5 7 9 15 9 8 0 12 -4 9 -9z m2530 3 c3 -5 -1 -11 -9 -15 -15 -6
-29 7 -18 18 9 9 21 8 27 -3z m1636 -15 c0 -3 -4 -8 -10 -11 -5 -3 -10 -1 -10
4 0 6 5 11 10 11 6 0 10 -2 10 -4z m-3284 -113 c4 -14 1 -29 -6 -36 -10 -9
-11 -9 -5 3 8 13 7 13 -8 1 -16 -12 -20 -11 -37 7 -26 27 -25 37 3 49 29 14
46 6 53 -24z m-406 -23 c0 -5 -7 -10 -15 -10 -8 0 -15 5 -15 10 0 6 7 10 15
10 8 0 15 -4 15 -10z m-440 -10 c0 -5 -5 -10 -11 -10 -5 0 -7 5 -4 10 3 6 8
10 11 10 2 0 4 -4 4 -10z m144 -22 c-3 -4 -9 -8 -15 -8 -5 0 -9 4 -9 8 0 5 7
9 15 9 8 0 12 -4 9 -9z m-194 -76 c-7 -3 -16 2 -21 9 -16 25 -9 32 12 13 13
-12 16 -20 9 -22z m922 -7 c0 -5 -5 -11 -11 -13 -6 -2 -11 4 -11 13 0 9 5 15
11 13 6 -2 11 -8 11 -13z m-152 -55 c0 -5 -4 -10 -10 -10 -5 0 -10 5 -10 10 0
6 5 10 10 10 6 0 10 -4 10 -10z m270 -164 c0 -3 -4 -8 -10 -11 -5 -3 -10 -1
-10 4 0 6 5 11 10 11 6 0 10 -2 10 -4z m20 -48 c0 -28 -15 -37 -35 -21 -16 13
-17 15 -2 10 11 -4 17 -1 17 8 0 8 5 15 10 15 6 0 10 -6 10 -12z m3365 -18 c3
-5 1 -10 -4 -10 -6 0 -11 5 -11 10 0 6 2 10 4 10 3 0 8 -4 11 -10z m-3465 -15
c-7 -9 -15 -13 -19 -10 -3 3 1 10 9 15 21 14 24 12 10 -5z m3440 4 c0 -5 -4
-7 -10 -4 -5 3 -10 1 -10 -5 0 -6 -4 -8 -10 -5 -17 10 -11 25 10 25 11 0 20
-5 20 -11z m-3410 -9 c0 -5 -5 -10 -11 -10 -5 0 -7 5 -4 10 3 6 8 10 11 10 2
0 4 -4 4 -10z m3367 -20 c3 -10 13 -22 23 -25 23 -7 35 -35 15 -35 -8 0 -15
-4 -15 -10 0 -5 5 -10 11 -10 6 0 9 -6 6 -12 -6 -17 20 -68 36 -69 6 -1 20 -1
30 0 9 1 17 -3 17 -8 0 -6 -7 -11 -15 -11 -8 0 -15 -4 -15 -10 0 -5 7 -7 15
-4 8 4 15 1 15 -5 0 -15 43 -31 50 -20 3 5 18 2 32 -5 15 -8 28 -13 30 -11 4
4 51 15 83 19 11 2 26 -2 33 -7 11 -8 18 -5 31 12 13 17 24 22 39 16 16 -5 22
-2 22 9 0 11 9 16 31 16 17 0 39 4 49 10 13 7 19 6 24 -6 4 -10 12 -14 22 -10
14 5 15 4 5 -8 -7 -8 -10 -19 -7 -25 4 -5 -3 -12 -14 -16 -20 -6 -20 -7 2 -31
13 -13 29 -24 36 -24 8 0 10 -5 6 -12 -6 -10 -5 -10 8 -1 18 16 28 7 28 -25 0
-21 2 -22 15 -12 17 14 20 40 4 40 -6 0 -9 6 -6 13 2 6 -2 28 -9 49 -7 20 -9
40 -6 44 4 5 -2 2 -13 -6 -11 -8 -17 -10 -13 -6 4 5 3 15 -4 23 -17 21 4 39
29 24 10 -6 14 -11 10 -11 -4 0 -3 -9 3 -20 6 -11 14 -19 18 -18 4 1 15 -2 24
-6 11 -5 23 -2 33 8 18 18 29 21 20 6 -10 -16 0 -12 25 10 13 11 33 20 46 20
14 0 25 8 29 20 7 21 25 18 25 -3 -1 -20 -42 -64 -47 -50 -6 18 -30 -7 -39
-41 -5 -20 -3 -26 11 -26 10 0 15 -5 12 -14 -6 -15 39 -17 62 -2 10 7 12 6 6
-4 -5 -8 -3 -11 6 -8 8 3 13 12 11 21 -5 29 16 27 30 -3 9 -21 20 -30 36 -30
15 0 26 -9 34 -27 6 -16 11 -31 10 -35 -1 -4 7 -10 18 -13 27 -9 25 -22 -5
-29 -19 -5 -25 -13 -25 -35 0 -17 -6 -31 -15 -35 -13 -5 -13 -10 4 -42 11 -21
17 -42 14 -47 -4 -6 0 -8 9 -5 8 4 21 2 29 -3 11 -7 11 -11 1 -21 -10 -10 -16
-10 -30 0 -9 7 -25 15 -35 19 -11 3 -16 12 -12 24 4 12 -1 21 -15 29 -11 6
-20 17 -20 25 0 7 -6 16 -12 18 -10 4 -9 8 2 17 13 10 13 11 -2 6 -10 -3 -18
-2 -18 3 0 5 -9 11 -20 14 -11 3 -20 9 -18 14 1 4 -1 18 -6 30 -8 25 -32 21
-41 -7 -4 -14 -14 -18 -38 -16 -17 1 -43 -3 -56 -10 -14 -8 -28 -10 -31 -5 -3
4 -14 11 -25 15 -16 6 -17 9 -5 16 8 5 11 12 7 17 -4 4 -15 3 -25 -3 -11 -8
-27 -8 -50 0 -28 8 -36 7 -43 -6 -7 -12 -21 -16 -51 -15 -35 2 -47 -2 -65 -23
-15 -17 -21 -33 -18 -48 4 -16 2 -21 -6 -17 -8 5 -9 1 -4 -15 4 -12 4 -37 1
-56 -6 -31 -9 -33 -27 -21 -17 10 -22 9 -35 -7 -13 -18 -19 -15 -15 8 1 5 -5
3 -14 -4 -14 -12 -18 -11 -26 1 -8 14 -10 12 -13 -13 -2 -25 -38 -20 -60 7
l-22 27 -35 -34 c-25 -24 -35 -43 -35 -61 l2 -27 -24 30 c-19 25 -27 28 -38
19 -12 -10 -13 -8 -5 14 10 26 10 26 -17 14 -15 -6 -29 -14 -32 -17 -13 -13
-29 -9 -23 7 13 33 -17 2 -32 -33 -14 -33 -16 -35 -57 -31 -26 2 -42 8 -41 15
3 12 -64 48 -73 39 -3 -3 -7 -13 -8 -24 -4 -24 -71 -27 -73 -3 -1 9 6 16 17
16 10 0 16 -5 13 -11 -3 -5 8 3 25 18 16 16 34 28 39 28 4 -1 11 15 14 35 5
30 3 37 -11 41 -16 4 -15 7 5 29 12 13 27 24 34 24 6 0 11 7 11 15 0 8 3 15 8
15 9 0 8 -63 -2 -78 -7 -11 -3 -13 37 -16 6 -1 15 -5 19 -11 5 -6 11 -6 19 2
6 6 18 9 25 6 8 -3 14 -1 14 5 0 5 11 13 24 16 41 10 45 59 5 69 -10 3 -19 13
-19 24 0 15 -2 16 -10 3 -9 -13 -11 -13 -20 0 -5 8 -10 11 -10 7 0 -4 -10 -3
-21 4 -12 6 -19 7 -16 2 4 -5 -7 -10 -24 -10 -23 0 -28 4 -24 18 3 9 -1 24 -9
32 -8 8 -12 18 -8 23 4 5 -1 2 -10 -5 -15 -12 -18 -11 -18 3 0 9 -4 16 -10 16
-5 0 -10 6 -10 14 0 8 -14 28 -31 45 -17 17 -27 31 -22 31 5 0 9 10 10 22 1
12 8 28 16 36 13 12 17 12 35 -6 11 -11 22 -20 24 -19 2 1 -2 -2 -8 -8 -15
-14 -27 -65 -14 -65 5 0 9 -3 9 -7 -6 -34 18 -15 40 32 11 23 15 26 18 13 7
-30 32 -9 28 23 -3 19 0 29 8 28 30 -4 45 3 50 21 3 11 2 18 -3 15 -4 -3 -11
2 -14 10 -3 8 -10 14 -15 13 -5 -2 -9 2 -9 7 0 6 4 9 9 8 4 -2 13 6 19 17 6
11 8 20 4 20 -3 0 -1 7 6 15 10 12 10 18 -1 32 -12 15 -12 16 3 10 13 -4 18 1
23 24 7 33 34 39 42 9z m411 -35 c-3 -3 -9 2 -12 12 -6 14 -5 15 5 6 7 -7 10
-15 7 -18z m72 -24 c10 -20 4 -51 -9 -51 -4 0 -12 10 -18 23 -18 40 6 66 27
28z m-4213 -98 c-15 -16 -17 -16 -17 -1 0 9 6 18 13 21 20 7 22 -2 4 -20z
m103 17 c0 -5 -2 -10 -4 -10 -3 0 -8 5 -11 10 -3 6 -1 10 4 10 6 0 11 -4 11
-10z m-190 -63 c8 -3 3 -5 -11 -4 -14 1 -26 7 -26 14 0 8 5 9 11 4 6 -4 18
-11 26 -14z m3720 13 c0 -5 -2 -10 -4 -10 -3 0 -8 5 -11 10 -3 6 -1 10 4 10 6
0 11 -4 11 -10z m1005 -10 c3 -5 1 -10 -4 -10 -6 0 -11 5 -11 10 0 6 2 10 4
10 3 0 8 -4 11 -10z m-1185 -10 c0 -5 -4 -10 -10 -10 -5 0 -10 5 -10 10 0 6 5
10 10 10 6 0 10 -4 10 -10z m-2820 -40 c0 -5 -10 -10 -22 -10 -19 0 -20 2 -8
10 19 13 30 13 30 0z m-610 -170 c0 -5 -4 -10 -10 -10 -5 0 -10 5 -10 10 0 6
5 10 10 10 6 0 10 -4 10 -10z m370 0 c0 -5 -4 -10 -10 -10 -5 0 -10 5 -10 10
0 6 5 10 10 10 6 0 10 -4 10 -10z m370 0 c0 -5 -5 -10 -11 -10 -5 0 -7 5 -4
10 3 6 8 10 11 10 2 0 4 -4 4 -10z m2760 -30 c0 -5 -2 -10 -4 -10 -3 0 -8 5
-11 10 -3 6 -1 10 4 10 6 0 11 -4 11 -10z m-2943 -27 c-3 -3 -11 -2 -17 2 -9
6 -9 10 1 16 14 8 27 -7 16 -18z m-1309 0 c-4 -22 -22 -20 -26 1 -2 10 3 16
13 16 10 0 15 -7 13 -17z m189 -19 c7 -20 -8 -48 -28 -52 -8 -1 -23 4 -33 11
-15 11 -17 17 -7 35 14 26 59 30 68 6z m73 -64 c0 -5 -4 -10 -10 -10 -5 0 -10
5 -10 10 0 6 5 10 10 10 6 0 10 -4 10 -10z m510 0 c0 -5 -5 -10 -11 -10 -5 0
-7 5 -4 10 3 6 8 10 11 10 2 0 4 -4 4 -10z m240 6 c0 -3 -4 -8 -10 -11 -5 -3
-10 -1 -10 4 0 6 5 11 10 11 6 0 10 -2 10 -4z m443 -73 c-7 -2 -19 -2 -25 0
-7 3 -2 5 12 5 14 0 19 -2 13 -5z m3497 -13 c0 -5 -7 -10 -15 -10 -8 0 -15 5
-15 10 0 6 7 10 15 10 8 0 15 -4 15 -10z m-3720 -30 c0 -11 -7 -20 -15 -20 -8
0 -15 9 -15 20 0 11 7 20 15 20 8 0 15 -9 15 -20z m3300 -10 c0 -5 -5 -10 -11
-10 -5 0 -7 5 -4 10 3 6 8 10 11 10 2 0 4 -4 4 -10z m-3050 -10 c0 -5 -5 -10
-11 -10 -5 0 -7 5 -4 10 3 6 8 10 11 10 2 0 4 -4 4 -10z m3124 -35 c-4 -8 -11
-12 -16 -9 -6 4 -5 10 3 15 19 12 19 11 13 -6z m-1194 -26 c0 -6 -4 -7 -10 -4
-5 3 -10 11 -10 16 0 6 5 7 10 4 6 -3 10 -11 10 -16z m-1780 -5 c0 -8 -4 -12
-10 -9 -5 3 -10 10 -10 16 0 5 5 9 10 9 6 0 10 -7 10 -16z m2179 -7 c13 -16 5
-27 -21 -27 -11 0 -18 -8 -19 -20 -1 -11 -3 -24 -4 -30 -1 -5 -3 -13 -4 -17 0
-4 -8 2 -16 13 -18 24 -19 54 -2 54 7 0 18 9 25 20 14 23 25 25 41 7z m-449
-25 c0 -12 5 -11 25 2 28 19 39 20 29 5 -3 -6 0 -15 7 -20 12 -7 12 -12 1 -29
-10 -17 -10 -23 1 -34 11 -11 16 -10 33 9 11 12 18 27 16 33 -5 15 15 24 24
11 4 -8 3 -9 -4 -5 -15 9 -15 -7 0 -22 9 -9 17 -43 21 -87 1 -14 47 -49 47
-35 0 5 4 10 9 10 4 0 7 -16 5 -36 -2 -29 0 -33 12 -23 7 6 11 16 8 21 -10 16
38 43 77 43 29 0 35 -3 31 -17 -3 -12 1 -18 13 -18 9 0 19 9 22 20 3 11 10 17
17 14 6 -3 3 1 -6 9 -10 8 -15 17 -11 20 3 4 2 7 -3 7 -5 0 -11 14 -12 30 -3
33 8 39 28 15 7 -8 9 -15 5 -15 -4 0 -2 -6 4 -13 6 -8 8 -17 4 -20 -3 -4 -1
-7 5 -7 16 0 24 17 12 25 -5 3 -10 15 -10 25 0 14 7 18 30 18 25 -1 30 -5 30
-24 0 -13 -8 -29 -19 -35 -16 -11 -17 -15 -5 -38 15 -28 9 -44 -7 -21 -8 12
-10 10 -6 -7 3 -13 1 -26 -4 -29 -5 -3 -5 -13 1 -25 14 -26 5 -39 -27 -39 -20
0 -23 -3 -14 -13 12 -15 5 -27 -14 -27 -7 0 -11 10 -8 23 4 27 -11 52 -25 43
-8 -4 -8 -15 -2 -31 6 -15 6 -27 -1 -30 -5 -4 -7 -9 -5 -13 2 -4 -9 -7 -25 -8
-16 -1 -29 3 -29 9 0 5 -7 3 -16 -4 -9 -7 -32 -12 -51 -10 -19 1 -33 -1 -30
-6 7 -11 -19 -34 -29 -25 -4 4 -4 -1 -1 -10 5 -15 3 -16 -18 -6 -20 9 -22 14
-14 29 7 13 6 19 -1 19 -6 0 -13 -7 -16 -15 -4 -8 -13 -15 -21 -15 -12 0 -13
3 -4 13 6 8 7 18 3 22 -4 5 -1 5 6 1 15 -9 16 10 1 19 -6 4 -8 13 -5 21 3 7 1
16 -4 19 -6 4 -4 17 4 33 21 41 27 85 15 102 -8 11 -12 12 -16 2 -2 -6 -9 -10
-14 -6 -5 3 1 14 13 25 l23 20 -35 -5 c-18 -4 -38 -12 -42 -19 -6 -8 -10 -6
-14 8 -3 11 -17 26 -32 33 -24 11 -28 10 -51 -15 -18 -21 -22 -23 -16 -8 4 11
10 36 13 55 2 19 11 43 19 52 18 20 53 20 53 0z m568 -7 c-3 -3 -9 2 -12 12
-6 14 -5 15 5 6 7 -7 10 -15 7 -18z m658 -11 c-4 -12 -10 -14 -17 -7 -5 5 -7
17 -3 27 4 12 10 14 17 7 5 -5 7 -17 3 -27z m-2126 -30 c0 -17 -22 -14 -28 4
-2 7 3 12 12 12 9 0 16 -7 16 -16z m770 -35 c0 -13 -4 -18 -11 -13 -8 5 -10
-1 -7 -19 3 -17 1 -24 -5 -20 -7 4 -8 -1 -3 -13 5 -14 4 -16 -4 -8 -6 6 -13
23 -16 38 -4 22 0 29 16 33 11 3 20 9 20 14 0 5 2 9 5 9 3 0 5 -9 5 -21z
m-1250 1 c0 -5 -4 -10 -10 -10 -5 0 -10 5 -10 10 0 6 5 10 10 10 6 0 10 -4 10
-10z m-240 -80 c-20 -13 -30 -12 -30 1 0 5 4 8 9 4 5 -3 13 0 16 6 4 5 10 8
13 4 4 -3 0 -10 -8 -15z m740 10 c0 -5 -5 -10 -11 -10 -5 0 -7 5 -4 10 3 6 8
10 11 10 2 0 4 -4 4 -10z m1375 -63 c6 -5 3 -7 -7 -3 -10 3 -20 1 -23 -4 -4
-6 -12 -10 -18 -10 -7 0 -6 4 3 10 8 5 11 10 5 10 -5 0 -3 4 5 10 8 5 17 6 20
2 3 -4 10 -11 15 -15z m-2180 3 c-3 -5 -12 -10 -18 -10 -7 0 -6 4 3 10 19 12
23 12 15 0z m2154 -86 c14 -31 5 -46 -13 -22 -7 10 -16 15 -19 12 -3 -3 -3 3
0 15 7 28 17 26 32 -5z m336 16 c3 -5 1 -10 -4 -10 -6 0 -11 5 -11 10 0 6 2
10 4 10 3 0 8 -4 11 -10z m533 -2 c-6 -18 -28 -21 -28 -4 0 9 7 16 16 16 9 0
14 -5 12 -12z m-1501 -14 c-3 -3 -12 -4 -19 -1 -8 3 -5 6 6 6 11 1 17 -2 13
-5z m1028 -4 c3 -5 1 -10 -4 -10 -6 0 -11 5 -11 10 0 6 2 10 4 10 3 0 8 -4 11
-10z m-995 -8 c0 -13 -12 -22 -22 -16 -10 6 -1 24 13 24 5 0 9 -4 9 -8z
m-1749 -82 c49 -14 64 -32 49 -59 -10 -20 -13 -20 -40 -6 -37 19 -90 19 -117
0 -32 -23 -47 -77 -33 -120 14 -43 44 -65 88 -65 60 0 103 44 50 52 -17 2 -23
10 -23 28 0 23 4 25 53 28 l52 3 0 -81 c0 -65 -3 -82 -16 -87 -9 -3 -24 -2
-33 4 -9 6 -25 7 -36 2 -33 -12 -84 -10 -114 6 -116 59 -116 225 -1 283 49 25
68 26 121 12z m1911 0 c20 -6 50 -26 67 -45 57 -65 54 -155 -8 -216 -62 -62
-152 -65 -215 -6 -61 58 -68 154 -15 221 11 14 17 31 13 38 -5 10 -4 10 6 1 9
-8 20 -8 44 3 38 16 60 17 108 4z m372 -27 c20 -20 26 -36 26 -69 0 -63 -31
-95 -98 -102 l-51 -4 -3 -52 c-3 -47 -5 -51 -30 -54 l-28 -3 0 155 c0 176 -8
163 96 158 52 -3 68 -8 88 -29z m-1934 2 c0 -24 -2 -25 -65 -25 l-65 0 0 -35
0 -35 50 0 c49 0 50 -1 50 -30 0 -29 -1 -30 -50 -30 l-50 0 0 -35 0 -35 71 0
70 0 -3 -27 -3 -28 -95 0 -95 0 -3 153 -3 152 96 0 c95 0 95 0 95 -25z m270 0
c0 -23 -4 -24 -62 -27 -63 -3 -63 -3 -66 -35 l-3 -33 55 0 c56 0 56 0 56 -30
0 -30 -1 -30 -55 -30 l-55 0 0 -35 0 -35 71 0 70 0 -3 -27 -3 -28 -92 -3 -93
-3 -1 93 c-1 51 -3 121 -5 156 l-3 62 95 0 c93 0 94 0 94 -25z m150 -35 c0
-45 3 -60 14 -60 8 0 29 27 48 60 30 54 36 60 65 60 18 0 33 -2 33 -5 0 -2
-18 -34 -40 -70 -22 -36 -40 -68 -40 -71 0 -4 20 -40 45 -81 35 -57 42 -75 31
-79 -32 -12 -53 4 -91 69 -22 37 -45 67 -52 67 -8 0 -13 -23 -15 -67 -3 -66
-4 -68 -30 -71 l-28 -3 0 155 0 156 30 0 30 0 0 -60z m390 -37 c0 -120 11
-147 61 -151 60 -5 69 12 69 139 l0 109 30 0 30 0 0 -112 c0 -95 -3 -118 -20
-146 -24 -40 -61 -55 -118 -49 -84 9 -112 60 -112 207 l0 100 30 0 30 0 0 -97z
m510 72 c0 -23 -3 -25 -50 -25 l-49 0 -3 -127 -3 -128 -27 -3 -28 -3 0 130 0
131 -50 0 c-47 0 -50 2 -50 25 l0 25 130 0 130 0 0 -25z m778 -127 l-3 -153
-27 -3 c-31 -4 -32 0 -29 138 0 36 -3 89 -8 118 l-8 52 39 0 39 0 -3 -152z
m279 2 c29 -80 52 -148 52 -152 1 -5 -12 -8 -28 -8 -26 0 -31 5 -43 43 -15 42
-15 42 -64 42 -49 0 -49 0 -64 -42 -12 -37 -18 -43 -42 -43 -15 0 -28 3 -28 8
0 4 23 74 52 155 l53 148 30 -3 c29 -3 32 -8 82 -148z m-3619 129 c-2 -6 -8
-10 -13 -10 -5 0 -11 4 -13 10 -2 6 4 11 13 11 9 0 15 -5 13 -11z m5067 -159
c3 -5 1 -10 -4 -10 -6 0 -11 5 -11 10 0 6 2 10 4 10 3 0 8 -4 11 -10z m-455
-30 c0 -5 -5 -10 -11 -10 -5 0 -7 5 -4 10 3 6 8 10 11 10 2 0 4 -4 4 -10z
m-1930 -104 c0 -3 -4 -8 -10 -11 -5 -3 -10 -1 -10 4 0 6 5 11 10 11 6 0 10 -2
10 -4z m510 -26 c0 -11 -7 -20 -15 -20 -27 0 -18 30 13 39 1 1 2 -8 2 -19z
m1408 -8 c2 -7 -3 -12 -12 -12 -9 0 -16 7 -16 16 0 17 22 14 28 -4z m-1303
-11 c3 -5 1 -12 -5 -16 -5 -3 -10 1 -10 9 0 18 6 21 15 7z m-3435 -22 c0 -12
-29 -24 -37 -16 -3 4 -3 13 0 21 6 16 37 11 37 -5z m4970 1 c0 -5 -5 -10 -11
-10 -5 0 -7 5 -4 10 3 6 8 10 11 10 2 0 4 -4 4 -10z m-4990 -90 c0 -5 -4 -10
-10 -10 -5 0 -10 5 -10 10 0 6 5 10 10 10 6 0 10 -4 10 -10z m3250 -58 c0 -10
-3 -22 -7 -26 -5 -4 -8 -13 -8 -19 -1 -7 -6 -11 -12 -10 -15 3 -27 -33 -17
-48 4 -7 3 -9 -4 -5 -6 3 -22 -5 -36 -19 -30 -30 -30 -29 -15 -57 8 -15 8 -19
0 -14 -7 4 -10 0 -9 -11 4 -45 -3 -93 -15 -105 -8 -7 -12 -19 -9 -26 2 -7 -2
-20 -9 -28 -7 -9 -13 -31 -12 -49 0 -24 -3 -32 -13 -28 -10 3 -11 10 -4 22 9
18 8 46 -2 57 -4 3 -16 3 -27 -1 -23 -7 -28 -30 -8 -38 7 -4 6 -6 -5 -6 -9 -1
-19 5 -21 12 -4 9 -6 9 -6 0 -1 -6 4 -15 9 -18 17 -10 11 -25 -10 -25 -11 0
-20 -4 -20 -10 0 -5 -7 -7 -16 -3 -15 5 -15 7 0 15 11 6 14 14 8 21 -5 7 -8
20 -7 30 4 20 -13 23 -21 3 -7 -18 -31 -28 -31 -13 0 7 -3 22 -7 35 -7 22 -6
23 28 17 32 -6 39 -3 72 31 20 20 30 35 22 32 -12 -5 -13 3 -8 44 l7 50 -31
-6 c-17 -4 -39 -7 -48 -7 -10 0 -18 -7 -18 -15 0 -8 -5 -14 -11 -14 -7 0 -6 8
4 23 15 22 17 24 63 26 14 0 23 5 19 10 -8 13 24 43 38 34 6 -4 8 0 4 11 -9
24 29 61 48 46 10 -8 19 -8 34 -1 14 8 21 8 25 -2 3 -8 11 -4 25 13 11 14 26
32 33 40 7 8 12 23 10 33 -2 9 1 17 7 17 6 0 11 -8 11 -18z m-820 -32 c0 -5
-4 -10 -10 -10 -5 0 -10 5 -10 10 0 6 5 10 10 10 6 0 10 -4 10 -10z m1630 -10
c0 -5 -4 -10 -10 -10 -5 0 -10 5 -10 10 0 6 5 10 10 10 6 0 10 -4 10 -10z
m-1960 -65 c0 -8 -4 -15 -9 -15 -13 0 -22 16 -14 24 11 11 23 6 23 -9z m1805
-15 c3 -5 1 -10 -4 -10 -6 0 -11 5 -11 10 0 6 2 10 4 10 3 0 8 -4 11 -10z
m-1950 -20 c3 -5 1 -10 -4 -10 -6 0 -11 5 -11 10 0 6 2 10 4 10 3 0 8 -4 11
-10z m-1850 -10 c3 -5 1 -10 -4 -10 -6 0 -11 5 -11 10 0 6 2 10 4 10 3 0 8 -4
11 -10z m2219 -11 c17 -25 12 -46 -15 -54 -41 -13 -67 49 -29 67 24 11 28 9
44 -13z m653 -65 c-3 -3 -12 -4 -19 -1 -8 3 -5 6 6 6 11 1 17 -2 13 -5z
m-3307 -18 c0 -3 -4 -8 -10 -11 -5 -3 -10 -1 -10 4 0 6 5 11 10 11 6 0 10 -2
10 -4z m2970 -46 c0 -5 -4 -10 -10 -10 -5 0 -10 5 -10 10 0 6 5 10 10 10 6 0
10 -4 10 -10z m299 -23 c13 4 13 3 2 -5 -16 -12 -41 -5 -41 11 0 8 3 8 11 0 6
-6 19 -9 28 -6z m781 3 c0 -5 -7 -10 -16 -10 -8 0 -12 5 -9 10 3 6 10 10 16
10 5 0 9 -4 9 -10z m-563 -32 c-3 -8 -6 -5 -6 6 -1 11 2 17 5 13 3 -3 4 -12 1
-19z m-427 6 c0 -3 -7 -12 -15 -20 -13 -14 -15 -13 -15 5 0 12 6 21 15 21 8 0
15 -3 15 -6z m-150 -34 c0 -5 -7 -10 -15 -10 -8 0 -15 5 -15 10 0 6 7 10 15
10 8 0 15 -4 15 -10z m-1515 -20 c3 -5 -1 -10 -9 -10 -9 0 -16 5 -16 10 0 6 4
10 9 10 6 0 13 -4 16 -10z m1762 -42 c-3 -8 -6 -5 -6 6 -1 11 2 17 5 13 3 -3
4 -12 1 -19z m-457 -12 c0 -11 -19 -15 -25 -6 -3 5 1 10 9 10 9 0 16 -2 16 -4z
m-2565 -116 c3 -5 1 -10 -4 -10 -6 0 -11 5 -11 10 0 6 2 10 4 10 3 0 8 -4 11
-10z m385 -6 c0 -8 -4 -12 -10 -9 -5 3 -10 10 -10 16 0 5 5 9 10 9 6 0 10 -7
10 -16z m920 -4 c0 -5 -2 -10 -4 -10 -3 0 -8 5 -11 10 -3 6 -1 10 4 10 6 0 11
-4 11 -10z m3430 -30 c0 -5 -4 -10 -10 -10 -5 0 -10 5 -10 10 0 6 5 10 10 10
6 0 10 -4 10 -10z m-1857 -45 c-3 -9 -8 -14 -10 -11 -3 3 -2 9 2 15 9 16 15
13 8 -4z m-83 -93 c0 -5 -7 -9 -15 -9 -8 0 -15 4 -15 9 0 4 7 8 15 8 8 0 15
-4 15 -8z"/>
<path d="M1100 5150 c0 -11 4 -20 9 -20 6 0 9 9 8 20 -1 11 -5 20 -9 20 -4 0
-8 -9 -8 -20z"/>
<path d="M1262 5067 c-6 -7 -7 -18 -3 -26 6 -9 11 -10 15 -2 4 6 1 11 -6 11
-10 0 -9 3 2 10 8 5 12 12 9 15 -4 3 -11 0 -17 -8z"/>
<path d="M1301 4994 c0 -11 3 -14 6 -6 3 7 2 16 -1 19 -3 4 -6 -2 -5 -13z"/>
<path d="M1395 4581 c-3 -6 -15 -11 -26 -11 -25 0 -24 -12 3 -36 21 -18 21
-18 15 0 -5 12 -1 23 10 31 10 8 15 16 11 20 -3 3 -9 2 -13 -4z"/>
<path d="M1500 4510 c0 -5 5 -10 11 -10 5 0 7 5 4 10 -3 6 -8 10 -11 10 -2 0
-4 -4 -4 -10z"/>
<path d="M2084 3405 c-20 -22 -20 -23 -3 -36 13 -9 15 -17 8 -25 -7 -8 -4 -17
7 -29 14 -13 19 -14 25 -3 7 10 9 10 9 1 0 -7 4 -13 9 -13 9 0 -2 77 -13 88
-4 3 -11 0 -16 -8 -5 -8 -12 -12 -15 -9 -9 9 6 40 16 33 5 -3 6 2 3 10 -3 9
-7 16 -8 15 0 -1 -10 -11 -22 -24z"/>
<path d="M2135 3420 c3 -5 8 -10 11 -10 2 0 4 5 4 10 0 6 -5 10 -11 10 -5 0
-7 -4 -4 -10z"/>
<path d="M2040 3350 c0 -10 8 -24 19 -29 15 -9 18 -7 17 7 -1 17 -19 42 -30
42 -3 0 -6 -9 -6 -20z"/>
<path d="M2013 3341 c-3 -10 -14 -23 -26 -29 -16 -8 -18 -11 -6 -11 18 -1 42
23 45 45 3 21 -7 17 -13 -5z"/>
<path d="M2171 3321 c-7 -5 -12 -14 -10 -20 2 -6 10 -2 17 9 14 22 13 23 -7
11z"/>
<path d="M2066 3288 c3 -4 12 -8 20 -8 8 0 14 4 14 8 0 4 -9 8 -19 8 -11 0
-17 -4 -15 -8z"/>
<path d="M2225 3258 c11 -6 23 -16 27 -22 5 -7 8 -5 8 5 0 16 -20 29 -43 29
-7 0 -3 -6 8 -12z"/>
<path d="M2210 3230 c0 -5 7 -10 16 -10 8 0 12 5 9 10 -3 6 -10 10 -16 10 -5
0 -9 -4 -9 -10z"/>
<path d="M2325 3140 c3 -5 8 -10 11 -10 2 0 4 5 4 10 0 6 -5 10 -11 10 -5 0
-7 -4 -4 -10z"/>
<path d="M2352 3055 c-21 -11 -21 -13 -5 -19 13 -5 14 -9 5 -15 -8 -5 -10 -19
-6 -39 5 -26 9 -30 20 -21 8 6 14 8 14 5 0 -9 -26 -36 -31 -33 -2 1 4 -6 14
-16 24 -25 16 -43 -17 -39 -18 2 -26 -2 -26 -13 0 -8 5 -15 11 -15 5 0 7 5 4
10 -3 6 -1 10 4 10 16 0 13 -26 -5 -44 -8 -9 -12 -16 -8 -16 4 0 -2 -10 -14
-23 -19 -20 -18 -50 2 -48 16 2 15 0 -4 -21 -20 -21 -20 -21 -35 -2 -9 12 -14
14 -15 5 0 -7 -6 -11 -12 -9 -7 2 -24 -7 -38 -21 -14 -13 -19 -21 -12 -17 6 4
12 2 12 -4 0 -7 -6 -10 -12 -7 -7 2 -13 16 -13 30 1 30 -21 37 -28 10 -3 -14
-6 -12 -15 10 -6 15 -16 27 -22 27 -6 0 -8 10 -5 23 4 12 -1 30 -10 42 l-15
20 7 -20 c6 -18 5 -18 -10 -6 -9 7 -17 20 -17 27 0 8 -4 14 -8 14 -5 0 -14 11
-21 24 -9 16 -19 22 -32 19 -10 -3 -19 -7 -19 -8 0 -15 70 -161 102 -213 167
-274 416 -451 737 -523 126 -29 346 -31 474 -6 225 45 458 163 635 322 l62 57
-2 231 -3 232 -182 3 -181 2 -11 -52 c-20 -92 -77 -195 -145 -262 -106 -104
-244 -162 -413 -173 -219 -14 -413 57 -544 200 -39 43 -94 149 -114 222 -10
33 -24 68 -33 78 -8 9 -10 17 -4 17 6 0 13 -6 16 -12 3 -7 3 5 -1 27 -3 22 -6
40 -7 41 0 0 -11 -5 -24 -11z m12 -256 c-2 -4 0 -10 6 -14 5 -3 10 -1 10 6 0
26 13 -2 14 -29 1 -23 -3 -28 -16 -24 -12 3 -18 -1 -18 -12 0 -9 -4 -16 -10
-16 -5 0 -10 9 -10 19 0 11 -9 23 -21 26 -16 5 -18 10 -8 21 12 15 33 9 24 -7
-4 -5 -1 -9 5 -9 8 0 10 9 6 23 -4 17 -1 24 9 24 8 0 12 -4 9 -8z m-37 -121
c-3 -8 -6 -5 -6 6 -1 11 2 17 5 13 3 -3 4 -12 1 -19z m42 -2 c1 11 31 16 31 5
-1 -19 -17 -28 -37 -20 -16 6 -21 13 -16 25 6 16 7 16 14 -2 4 -10 8 -14 8 -8z
m239 -192 c-7 -15 -20 -24 -34 -24 -13 0 -30 -10 -38 -22 -14 -19 -16 -20 -16
-5 0 10 11 30 24 44 14 15 22 31 19 35 -3 5 3 16 13 24 11 9 13 13 7 9 -17 -8
-17 17 -1 33 19 19 40 -62 26 -94z m-73 -124 c3 -5 1 -10 -4 -10 -6 0 -11 5
-11 10 0 6 2 10 4 10 3 0 8 -4 11 -10z m129 4 c25 -10 19 -34 -9 -34 -24 0
-34 18 -18 33 8 8 8 8 27 1z"/>
<path d="M2347 2899 c7 -7 15 -10 18 -7 3 3 -2 9 -12 12 -14 6 -15 5 -6 -5z"/>
<path d="M2192 2874 c-12 -8 -20 -20 -17 -25 4 -5 1 -9 -5 -9 -7 0 -5 -7 4
-16 18 -17 21 -28 6 -19 -5 3 -2 -8 8 -24 19 -35 33 -41 25 -11 -3 12 0 20 6
20 7 0 9 5 6 10 -3 6 -1 10 5 10 7 0 5 7 -4 16 -18 17 -21 28 -6 19 6 -4 10 5
10 19 0 30 -7 32 -38 10z"/>
<path d="M2253 2797 c0 -20 24 -30 33 -14 4 7 4 9 -1 5 -4 -4 -13 0 -20 8 -11
15 -12 15 -12 1z"/>
<path d="M4675 2110 c-3 -5 -1 -10 4 -10 6 0 11 5 11 10 0 6 -2 10 -4 10 -3 0
-8 -4 -11 -10z"/>
<path d="M5220 2080 c0 -5 4 -10 9 -10 6 0 13 5 16 10 3 6 -1 10 -9 10 -9 0
-16 -4 -16 -10z"/>
<path d="M5439 2064 c-12 -14 -11 -16 5 -13 11 2 21 10 24 17 5 17 -13 15 -29
-4z"/>
<path d="M4720 1911 c0 -16 25 -19 38 -5 11 12 8 14 -13 14 -14 0 -25 -4 -25
-9z"/>
<path d="M4840 1835 c0 -8 4 -15 10 -15 5 0 7 7 4 15 -4 8 -8 15 -10 15 -2 0
-4 -7 -4 -15z"/>
<path d="M3990 1461 c0 -6 4 -13 10 -16 6 -3 7 1 4 9 -7 18 -14 21 -14 7z"/>
<path d="M4050 1425 c0 -8 5 -15 10 -15 6 0 10 7 10 15 0 8 -4 15 -10 15 -5 0
-10 -7 -10 -15z"/>
<path d="M3896 1361 c-4 -5 -2 -12 3 -15 5 -4 12 -2 15 3 4 5 2 12 -3 15 -5 4
-12 2 -15 -3z"/>
<path d="M3581 1213 c-44 -41 -46 -106 -5 -147 31 -30 86 -35 121 -11 26 19
47 77 38 107 -10 32 -45 68 -60 62 -7 -3 -16 -1 -20 5 -11 19 -44 12 -74 -16z"/>
<path d="M3940 1194 l0 -45 43 3 c38 3 42 6 45 31 5 38 -14 57 -54 57 -34 0
-34 0 -34 -46z"/>
<path d="M4408 1160 l-16 -40 29 0 c33 0 34 5 16 49 l-14 32 -15 -41z"/>
<path d="M3847 554 c-3 -3 -3 -13 1 -22 5 -15 4 -15 -11 -3 -15 12 -17 11 -17
-2 0 -24 17 -29 36 -10 11 11 13 18 5 21 -6 2 -9 8 -5 13 6 10 1 12 -9 3z"/>
<path d="M115 3760 c-3 -6 1 -7 9 -4 18 7 21 14 7 14 -6 0 -13 -4 -16 -10z"/>
<path d="M264 3572 c0 -13 7 -18 21 -16 11 1 24 3 28 3 5 1 6 5 2 11 -3 5 -12
7 -20 3 -8 -3 -15 0 -15 6 0 6 -4 11 -8 11 -4 0 -8 -8 -8 -18z"/>
<path d="M177 3529 c-3 -10 -1 -17 4 -13 5 3 9 -1 9 -9 0 -8 7 -17 15 -21 8
-3 15 -1 15 4 0 6 7 10 16 10 13 0 13 2 2 13 -8 6 -23 17 -35 24 -18 10 -22 9
-26 -8z"/>
<path d="M335 3459 c-4 -6 -5 -12 -2 -15 2 -3 7 2 10 11 7 17 1 20 -8 4z"/>
<path d="M66 3341 c-4 -6 -16 -11 -27 -11 -10 0 -19 -7 -19 -15 0 -18 17 -20
23 -2 8 22 15 3 10 -25 -3 -16 -12 -28 -20 -28 -8 0 -12 4 -9 9 3 5 0 11 -7
14 -10 4 -14 -14 -16 -69 -2 -69 8 -96 23 -58 3 8 11 12 17 8 8 -5 6 -10 -5
-16 -20 -11 -21 -32 -1 -25 15 6 29 -6 18 -16 -8 -9 -13 -70 -6 -81 3 -4 9 -2
14 5 7 11 9 11 9 1 0 -7 5 -19 12 -26 9 -10 15 -9 30 6 10 10 18 24 18 31 0 8
-4 7 -11 -3 -9 -13 -10 -13 -6 0 2 8 11 14 20 12 9 -2 27 3 39 9 22 11 22 11
7 -7 -13 -14 -14 -25 -7 -44 7 -20 11 -22 18 -10 8 13 10 13 10 -1 0 -19 30
-34 39 -20 4 6 12 6 21 1 12 -7 12 -12 -4 -28 -10 -12 -13 -23 -8 -26 6 -3 13
0 15 6 4 10 8 9 16 -2 14 -19 14 -33 1 -25 -6 3 -10 2 -10 -3 0 -17 13 -22 28
-9 13 9 14 9 8 0 -4 -7 -3 -13 3 -13 5 0 12 6 14 13 4 10 6 10 6 0 1 -7 5 -13
11 -13 5 0 7 13 4 30 -7 32 3 38 26 18 12 -11 12 -10 0 5 -9 12 -10 21 -3 25
6 4 1 16 -13 32 -13 13 -24 19 -24 13 0 -6 6 -13 13 -16 9 -3 9 -8 -2 -18 -8
-9 -11 -9 -7 -2 5 9 2 11 -9 6 -13 -5 -14 -7 -3 -14 9 -6 10 -11 2 -16 -6 -5
-13 -15 -16 -23 -4 -11 -8 -9 -17 8 -11 20 -10 26 10 43 12 10 19 19 15 19 -4
0 -2 9 4 20 6 11 7 20 1 20 -5 0 -12 -7 -15 -16 -8 -21 -23 -10 -28 21 -4 16
0 29 10 34 10 6 11 10 3 15 -6 4 -11 3 -11 -2 0 -6 -7 -12 -15 -16 -12 -4 -13
-2 -5 13 7 14 6 20 -5 25 -8 3 -17 0 -21 -6 -4 -7 -3 -8 4 -4 18 11 14 -10 -3
-24 -12 -10 -19 -10 -27 -2 -9 9 -9 12 0 12 7 0 12 4 12 10 0 6 -20 8 -47 5
-39 -3 -44 -2 -28 7 11 6 28 20 38 31 9 11 17 15 17 9 0 -7 4 -12 9 -12 6 0 9
9 8 19 0 10 -6 17 -12 14 -7 -2 -18 3 -25 12 -11 13 -10 14 6 9 18 -7 18 -7 2
13 -10 11 -18 26 -18 34 0 18 -37 42 -52 33 -7 -5 -9 -2 -6 8 5 11 0 14 -20
11 -15 -2 -21 0 -14 3 10 5 10 9 0 22 -10 12 -10 14 0 8 14 -8 16 3 3 23 -6 9
-11 10 -15 2z m69 -171 c5 1 11 -4 14 -11 2 -7 -1 -9 -10 -4 -30 17 -39 28
-32 38 4 7 9 4 13 -7 3 -10 10 -17 15 -16z m85 -140 c0 -5 -9 -6 -20 -3 -11 3
-17 9 -15 14 7 10 35 1 35 -11z"/>
<path d="M285 3140 c3 -5 8 -10 11 -10 2 0 4 5 4 10 0 6 -5 10 -11 10 -5 0 -7
-4 -4 -10z"/>
<path d="M182 3114 c-14 -15 -7 -17 22 -5 15 6 16 9 5 13 -8 3 -20 -1 -27 -8z"/>
<path d="M300 3095 c7 -9 15 -13 17 -11 7 7 -7 26 -19 26 -6 0 -6 -6 2 -15z"/>
<path d="M17 3093 c-3 -5 -2 -15 2 -22 5 -7 11 -9 14 -4 3 5 2 15 -2 22 -5 7
-11 9 -14 4z"/>
<path d="M357 3033 c-11 -10 -8 -20 7 -26 8 -3 17 0 20 8 3 10 0 12 -11 8 -11
-4 -14 -2 -9 5 8 13 3 16 -7 5z"/>
<path d="M174 2973 c4 -7 2 -13 -4 -13 -6 0 -8 -5 -4 -11 4 -8 9 -8 17 0 8 8
7 14 -2 24 -11 10 -13 10 -7 0z"/>
<path d="M220 2956 c5 -5 6 -16 3 -25 -3 -10 0 -8 8 4 7 11 17 23 22 27 6 3
-2 5 -16 5 -15 -1 -22 -6 -17 -11z"/>
<path d="M190 2931 c0 -6 4 -13 10 -16 6 -3 7 1 4 9 -7 18 -14 21 -14 7z"/>
<path d="M3938 33 c-21 -5 -32 -33 -13 -33 8 0 19 9 25 20 6 11 9 19 8 19 -2
-1 -10 -3 -20 -6z"/>
</g>
</svg>
